<?xml version="1.0" encoding="UTF-8" standalone="no"?>
<!-- Created with Inkscape (http://www.inkscape.org/) -->

<svg
   xmlns:dc="http://purl.org/dc/elements/1.1/"
   xmlns:cc="http://creativecommons.org/ns#"
   xmlns:rdf="http://www.w3.org/1999/02/22-rdf-syntax-ns#"
   xmlns:svg="http://www.w3.org/2000/svg"
   xmlns="http://www.w3.org/2000/svg"
   xmlns:sodipodi="http://sodipodi.sourceforge.net/DTD/sodipodi-0.dtd"
   xmlns:inkscape="http://www.inkscape.org/namespaces/inkscape"
   sodipodi:docname="side2v2b.svg"
   inkscape:version="0.92.4 (5da689c313, 2019-01-14)"
   width="100.0mm"
   height="100.0mm"
   viewBox="0 0 100.0 100.0"
   version="1.1"
   id="svg8">
  <defs
     id="defs2">
    <marker
       inkscape:stockid="Arrow2Mstart"
       orient="auto"
       refY="0"
       refX="0"
       id="marker7586"
       style="overflow:visible"
       inkscape:isstock="true">
      <path
         inkscape:connector-curvature="0"
         id="path7584"
         style="fill:#000000;fill-opacity:1;fill-rule:evenodd;stroke:#000000;stroke-width:0.625;stroke-linejoin:round;stroke-opacity:1"
         d="M 8.7185878,4.0337352 -2.2072895,0.01601326 8.7185884,-4.0017078 c -1.7454984,2.3720609 -1.7354408,5.6174519 -6e-7,8.035443 z"
         transform="scale(0.6)" />
    </marker>
    <marker
       inkscape:stockid="Arrow2Mend"
       orient="auto"
       refY="0"
       refX="0"
       id="marker7644"
       style="overflow:visible"
       inkscape:isstock="true">
      <path
         inkscape:connector-curvature="0"
         id="path7642"
         style="fill:#000000;fill-opacity:1;fill-rule:evenodd;stroke:#000000;stroke-width:0.625;stroke-linejoin:round;stroke-opacity:1"
         d="M 8.7185878,4.0337352 -2.2072895,0.01601326 8.7185884,-4.0017078 c -1.7454984,2.3720609 -1.7354408,5.6174519 -6e-7,8.035443 z"
         transform="scale(-0.6)" />
    </marker>
  </defs>
  <sodipodi:namedview
     id="base"
     pagecolor="#ffffff"
     bordercolor="#666666"
     borderopacity="1.0"
     inkscape:pageopacity="0.0"
     inkscape:pageshadow="2"
     inkscape:zoom="4"
     inkscape:cx="183.41482"
     inkscape:cy="168.03451"
     inkscape:document-units="mm"
     inkscape:current-layer="g832"
     showgrid="false"
     inkscape:window-width="2560"
     inkscape:window-height="1547"
     inkscape:window-x="1912"
     inkscape:window-y="-8"
     inkscape:window-maximized="1"
     borderlayer="true"
     inkscape:snap-grids="false"
     inkscape:snap-bbox="true"
     inkscape:snap-bbox-midpoints="true"
     inkscape:snap-object-midpoints="true"
     inkscape:snap-bbox-edge-midpoints="true"
     inkscape:bbox-nodes="true"
     inkscape:object-paths="true"
     inkscape:snap-smooth-nodes="true">
    <inkscape:grid
       spacingx="2.54"
       spacingy="2.54"
       empspacing="1"
       type="xygrid"
       units="mm"
       id="grid816" />
    <inkscape:grid
       spacingx="2.54"
       spacingy="2.54"
       empspacing="1"
       type="xygrid"
       units="mm"
       id="grid1318" />
  </sodipodi:namedview>
  <metadata
     id="metadata5">
    <rdf:RDF>
      <cc:Work
         rdf:about="">
        <dc:format>image/svg+xml</dc:format>
        <dc:type
           rdf:resource="http://purl.org/dc/dcmitype/StillImage" />
        <dc:title />
      </cc:Work>
    </rdf:RDF>
  </metadata>
  <g
     id="g822"
     sodipodi:insensitive="true"
     inkscape:groupmode="layer"
     inkscape:label="[fixed] BG">
    <rect
       id="rect820"
       style="stroke:none;fill-opacity:1;fill:#FFFFFF"
       height="100.0"
       width="100.0"
       y="0"
       x="0" />
  </g>
  <g
     id="g824"
     inkscape:groupmode="layer"
     inkscape:label="Edge.Cuts"
     style="display:inline">
    <path
       id="path935"
       d="M6.4025253 30.410904L6.4025253 68.293864L27.849795 68.293864L27.849795 65.202055L27.8772162305 64.9299969336L27.9558567188 64.6766160937L28.0802929102 64.4473362695L28.24510125 64.24758125L28.4448581836 64.0827748242L28.6741401562 63.9583407813L28.9275236133 63.8797029102L29.199585 63.852285L33.499584 63.852285L33.7716650469 63.8797029102L34.0251053125 63.9583407813L34.2544689844 64.0827748242L34.45432025 64.24758125L34.6192232969 64.4473362695L34.7437423125 64.6766160937L34.8224414844 64.9299969336L34.849885 65.202055L34.849885 68.293864L39.423256 68.293864L39.641531271 68.277323563L39.8444823867 68.2297122227L40.0308610513 68.1540449351L40.1994189687 68.0533366563L40.3489078433 67.9306023423L40.4780793789 67.7888569492L40.5856852798 67.6311154331L40.67047725 67.46039275L40.7312069937 67.279703856L40.7666262148 67.092063707L40.7754866177 66.9004872593L40.7565399063 66.7079894688L40.7085377847 66.5175852915L40.630231957 66.3322896836L40.5203741274 66.1551176011L40.377716 65.989084L39.195354 64.806735L39.0840865579 64.684414481L38.9911059043 64.5591095042L38.9156901423 64.4315268773L38.857117375 64.3023734082L38.8146657053 64.1723559047L38.7876132363 64.0421811746L38.7768183125 63.7841872656L38.8189574277 63.5340461438L38.9082554062 63.2974122715L39.0389370723 63.0799401111L39.20522725 62.887284125L39.4013507637 62.7250987756L39.6215324375 62.5990385254L39.8599970957 62.5147578367L40.1109695625 62.4779111719L40.3686746621 62.4941529934L40.4982472068 62.523949106L40.6273372188 62.5691377637L40.755222801 62.6304257741L40.8811820566 62.7085199451L41.0044930886 62.8041270844L41.124434 62.917954L42.286645 64.080663L42.4467356069 64.2233072981L42.6071119492 64.3331535879L42.7663094966 64.4114500876L42.9228637188 64.4594450156L43.0753100854 64.4783865901L43.2221840664 64.4695230293L43.3620211313 64.4341025515L43.49335675 64.373373375L43.6147263921 64.288583718L43.7246655273 64.1809817988L43.8217096255 64.0518158357L43.9043941562 63.9023340469L43.9712545894 63.7337846506L44.0208263945 63.5474158652L44.0516450415 63.3444759089L44.062246 63.126213L44.062246 30.410904L6.4025253 30.410904"
       style="display:inline;fill:none;fill-opacity:1;stroke:#000000;stroke-width:0.1;stroke-miterlimit:4;stroke-dasharray:none;stroke-opacity:1" />
    <path
       inkscape:connector-curvature="0"
       id="path933"
       d="M38.524071 34.559793L38.802150752 34.5804790352L39.0619815156 34.6548150313L39.2977481777 34.7771428242L39.503635625 34.94180425L39.6738287441 35.1431411445L39.8025124219 35.3754953438L39.8838715449 35.6332086836L39.912091 35.910623L39.9046005317 36.0743874629L39.8822280623 36.2275864766L39.8459657448 36.370220041L39.7968057324 36.5022881563L39.7357401783 36.6237908223L39.6637612356 36.7347280391L39.4910317969 36.924906125L39.2865546414 37.0728224141L39.0582669941 37.1784769062L38.8141060803 37.2418696016L38.562009125 37.2630005L38.3099133533 37.2418696016L38.0657559902 37.1784769062L37.837474261 37.0728224141L37.6330053906 36.924906125L37.4602866042 36.7347280391L37.3883138754 36.6237908223L37.327255127 36.5022881563L37.2781025121 36.370220041L37.2418481838 36.2275864766L37.2194842954 36.0743874629L37.212003 35.910623L37.2381685254 35.6434511055L37.3138748906 35.3939172188L37.4340435293 35.1672477852L37.593595875 34.96866925L37.7874533613 34.8034080586L38.0105374219 34.6766906562L38.2577694902 34.5937434883L38.524071 34.559793L38.524071 34.559793"
       style="display:inline;fill:none;fill-opacity:1;stroke:#000000;stroke-width:0.1;stroke-miterlimit:4;stroke-dasharray:none;stroke-opacity:1" />
    <path
       inkscape:connector-curvature="0"
       id="path931"
       d="M11.86251 34.561158L12.1406915234 34.5815319258L12.4006703125 34.6556069063L12.6366214453 34.7777252461L12.84272 34.94222925L13.0131410547 35.1434612227L13.1420596875 35.3757634688L13.2236509766 35.633478293L13.25209 35.910948L13.2443443805 36.0744309199L13.2217667236 36.2273665547L13.1853458319 36.3697549043L13.1360705078 36.5015959687L13.0029117725 36.7336362422L12.8302009375 36.923487375L12.6258484229 37.0711493672L12.3977646484 37.1766222187L12.1538600342 37.2399059297L11.902045 37.2610005L11.6502299658 37.2399059297L11.4063253516 37.1766222187L11.1782415771 37.0711493672L10.9738890625 36.923487375L10.8011782275 36.7336362422L10.6680194922 36.5015959687L10.6187441681 36.3697549043L10.5823232764 36.2273665547L10.5597456195 36.0744309199L10.552 35.910948L10.5783105078 35.6441353828L10.6540209375 35.3949320625L10.7740746484 35.1685460859L10.933415 34.9701855L11.1269853516 34.8050583516L11.3497290625 34.6783726875L11.5965894922 34.5953365547L11.86251 34.561158L11.86251 34.561158"
       style="display:inline;fill:none;fill-opacity:1;stroke:#000000;stroke-width:0.1;stroke-miterlimit:4;stroke-dasharray:none;stroke-opacity:1" />
    <path
       id="path929"
       d="M15.794205 39.052194L32.599895 39.052194L32.7510413984 39.0674465195L32.8918068125 39.1111879062L33.0191791953 39.1803939023L33.1301465 39.27204025L33.2216966797 39.3831026914L33.2908176875 39.5105569687L33.3344974766 39.6513788242L33.349724 39.802544L33.349724 53.3025L33.3344887402 53.4536392012L33.2908040469 53.5943994219L33.2216812988 53.7217684629L33.130131875 53.832734125L33.0191671543 53.924284209L32.8917985156 53.9934065156L32.7510373379 54.0370888457L32.599895 54.052319L32.4487306641 54.0370888457L32.3079109375 53.9934065156L32.1804594922 53.924284209L32.0694 53.832734125L31.9777561328 53.7217684629L31.9085515625 53.5943994219L31.8648099609 53.4536392012L31.849555 53.3025L31.849555 40.552424L15.794205 40.552424L15.6430625781 40.5371942539L15.502300625 40.4935129063L15.3749308594 40.424391793L15.263965 40.33284275L15.1724147656 40.2218776133L15.103291875 40.0945082188L15.0596080469 39.9537464023L15.044375 39.802604L15.0596018945 39.6514359531L15.1032820312 39.51061275L15.1724033398 39.3831582969L15.26395375 39.2720965L15.3749211914 39.1804512656L15.5022935937 39.1112465L15.6430588867 39.0675061094L15.794205 39.052254L15.794205 39.052194"
       style="display:inline;fill:none;fill-opacity:1;stroke:#000000;stroke-width:0.1;stroke-miterlimit:4;stroke-dasharray:none;stroke-opacity:1" />
    <path
       id="path927"
       d="M35.149605 39.052194L35.3172635176 39.0674465195L35.4704473281 39.1111879062L35.6067275684 39.1803939023L35.723675375 39.27204025L35.8188618848 39.3831026914L35.8898582344 39.5105569687L35.9342355605 39.6513788242L35.949565 39.802544L35.949565 56.402049L35.9343319961 56.5532136465L35.8906482812 56.6940334844L35.8215255508 56.8214847363L35.7299755 56.932543625L35.6190098242 57.024186373L35.4916402188 57.0933892031L35.3508783789 57.1371283379L35.199736 57.15238L21.394375 57.15238L21.2432325977 57.1371283379L21.1024707812 57.0933892031L20.9751013867 57.024186373L20.86413625 56.932543625L20.772587207 56.8214847363L20.7034660938 56.6940334844L20.6597847461 56.5532136465L20.644555 56.402049L20.6597876172 56.2509007559L20.7034703125 56.1101353594L20.7725916016 55.9827641895L20.86414 55.871798625L20.9751040234 55.7802500449L21.1024721875 55.7111298281L21.2432330078 55.6674493535L21.394375 55.65222L34.349664 55.65222L34.349664 40.552354L34.349664 39.802534L34.3649910645 39.6513688672L34.4093663906 39.510547125L34.4803609277 39.3830930078L34.575545625 39.27203075L34.6924914316 39.1803845859L34.8287692969 39.11117875L34.9819501699 39.0674374766L35.149605 39.052185L35.149605 39.052194"
       style="display:inline;fill:none;fill-opacity:1;stroke:#000000;stroke-width:0.1;stroke-miterlimit:4;stroke-dasharray:none;stroke-opacity:1" />
    <path
       id="path925"
       d="M15.794205 41.352299L29.599565 41.352299L29.7507334375 41.3675283789L29.8915575 41.4112088438L30.0190128125 41.4803288867L30.130075 41.571877L30.2217196875 41.6828416758L30.2909225 41.8102114063L30.3346590625 41.9509746836L30.349905 42.10212L30.3346500391 42.2532847031L30.2909084375 42.3941053125L30.2217038672 42.5215578281L30.13006 42.63261825L30.0190005078 42.7242625781L29.8915490625 42.7934668125L29.7507293359 42.8372069531L29.599565 42.852459L16.544545 42.852459L16.544545 58.90214L16.5292929102 59.0533014023L16.4855526563 59.1941195313L16.4163482617 59.3215702695L16.32470375 59.4326295L16.2136431445 59.5242731055L16.0861904688 59.5934769688L15.9453697461 59.6372169727L15.794205 59.652469L15.6430588867 59.6372169727L15.5022935938 59.5934769688L15.3749211914 59.5242731055L15.26395375 59.4326295L15.1724033398 59.3215702695L15.1032820313 59.1941195313L15.0596018945 59.0533014023L15.044375 58.90214L15.044375 42.102114L15.0596018945 41.9509687266L15.1032820313 41.8102055625L15.1724033398 41.6828359922L15.26395375 41.5718715L15.3749211914 41.4803235703L15.5022935938 41.4112036875L15.6430588867 41.3675233359L15.794205 41.352294L15.794205 41.352299"
       style="display:inline;fill:none;fill-opacity:1;stroke:#000000;stroke-width:0.1;stroke-miterlimit:4;stroke-dasharray:none;stroke-opacity:1" />
    <path
       id="path923"
       d="M18.294305 44.652359L18.4454697461 44.6675883359L18.5862904688 44.7112686875L18.7137431445 44.7803885703L18.82480375 44.8719365L18.9164482617 44.9829009922L18.9856526563 45.1102705625L19.0293929102 45.2510337266L19.044645 45.402179L19.044645 58.152308L35.199736 58.152308L35.3508783789 58.1675382617L35.4916402188 58.2112209687L35.6190098242 58.2803440039L35.7299755 58.37189525L35.8215255508 58.4828625898L35.8906482813 58.6102339062L35.9343319961 58.750997082L35.949565 58.90214L35.9343383535 59.0533014023L35.8906582656 59.1941195312L35.8215368887 59.3215702695L35.729986375 59.4326295L35.619018877 59.5242731055L35.4916465469 59.5934769687L35.3508815371 59.6372169727L35.199736 59.652469L18.294305 59.652469L18.1431621875 59.6372169727L18.002399375 59.5934769687L17.87502875 59.5242731055L17.7640625 59.4326295L17.6725128125 59.3215702695L17.603391875 59.1941195312L17.559711875 59.0533014023L17.544485 58.90214L17.544485 45.402174L17.5597147461 45.2510287266L17.6033960937 45.1102655625L17.672517207 44.9828959922L17.76406625 44.8719315L17.8750313867 44.7803835703L18.0024007813 44.7112636875L18.1431625977 44.6675833359L18.294305 44.652354L18.294305 44.652359"
       style="display:inline;fill:none;fill-opacity:1;stroke:#000000;stroke-width:0.1;stroke-miterlimit:4;stroke-dasharray:none;stroke-opacity:1" />
    <path
       inkscape:connector-curvature="0"
       id="path7564"
       d="M11.863032 61.443151L12.1411333672 61.463616043L12.4010254375 61.5377492813L12.6368889141 61.6598966289L12.8429045 61.824404L13.0132528984 62.0256173086L13.1421148125 62.2578824687L13.2236709453 62.5155453945L13.252102 62.792952L13.2446126638 62.9566765928L13.2222434429 63.1098383086L13.1859862691 63.2524371475L13.1368330742 63.3844731094L13.07577579 63.5059461943L13.0038063481 63.6168564023L12.8310987188 63.8069881875L12.6266456401 63.9548684648L12.3983825664 64.0604972344L12.1542449517 64.1238744961L11.90216825 64.14500025L11.6500879155 64.1238744961L11.4059394023 64.0604972344L11.1776581646 63.9548684648L10.9731796563 63.8069881875L10.8004393315 63.6168564023L10.7284508174 63.5059461943L10.6673726445 63.3844731094L10.6181967446 63.2524371475L10.5819150493 63.1098383086L10.5595194905 62.9566765928L10.552002 62.792952L10.5783328008 62.5260725879L10.6540859063 62.2768143906L10.7741998711 62.0503888418L10.93361325 61.852007375L11.1272645977 61.6868814238L11.3500924688 61.5602224219L11.597035418 61.4772418027L11.863032 61.443151L11.863032 61.443151"
       style="display:inline;fill:none;fill-opacity:1;stroke:#000000;stroke-width:0.1;stroke-miterlimit:4;stroke-dasharray:none;stroke-opacity:1" />
    <path
       inkscape:connector-curvature="0"
       style="display:inline;fill:none;fill-opacity:1;stroke:#000000;stroke-width:0.1;stroke-miterlimit:4;stroke-dasharray:none;stroke-opacity:1"
       d="M46.112772 30.47705L46.112772 68.36001L67.560042 68.36001L67.560042 65.268201L67.5874632305 64.9961429336L67.6661037187 64.7427620937L67.7905399102 64.5134822695L67.95534825 64.31372725L68.1551051836 64.1489208242L68.3843871562 64.0244867813L68.6377706133 63.9458489102L68.909832 63.918431L73.209831 63.918431L73.4819120469 63.9458489102L73.7353523125 64.0244867813L73.9647159844 64.1489208242L74.16456725 64.31372725L74.3294702969 64.5134822695L74.4539893125 64.7427620937L74.5326884844 64.9961429336L74.560132 65.268201L74.560132 68.36001L79.133503 68.36001L79.351778271 68.343469563L79.5547293867 68.2958582227L79.7411080513 68.2201909351L79.9096659687 68.1194826562L80.0591548433 67.9967483423L80.1883263789 67.8550029492L80.2959322798 67.6972614331L80.38072425 67.52653875L80.4414539937 67.345849856L80.4768732148 67.158209707L80.4857336177 66.9666332593L80.4667869062 66.7741354687L80.4187847847 66.5837312915L80.340478957 66.3984356836L80.2306211274 66.2212636011L80.087963 66.05523L78.905601 64.872881L78.7943335579 64.750560481L78.7013529043 64.6252555042L78.6259371423 64.4976728773L78.567364375 64.3685194082L78.5249127053 64.2385019047L78.4978602363 64.1083271746L78.4870653125 63.8503332656L78.5292044277 63.6001921438L78.6185024062 63.3635582715L78.7491840723 63.1460861111L78.91547425 62.953430125L79.1115977637 62.7912447756L79.3317794375 62.6651845254L79.5702440957 62.5809038367L79.8212165625 62.5440571719L80.0789216621 62.5602989934L80.2084942068 62.590095106L80.3375842187 62.6352837637L80.465469801 62.6965717741L80.5914290566 62.7746659451L80.7147400886 62.8702730844L80.834681 62.9841L81.996892 64.146809L82.1569826069 64.2894532981L82.3173589492 64.3992995879L82.4765564966 64.4775960876L82.6331107187 64.5255910156L82.7855570854 64.5445325901L82.9324310664 64.5356690293L83.0722681313 64.5002485515L83.20360375 64.439519375L83.3249733921 64.354729718L83.4349125273 64.2471277988L83.5319566255 64.1179618357L83.6146411562 63.9684800469L83.6815015894 63.7999306506L83.7310733945 63.6135618652L83.7618920415 63.4106219089L83.772493 63.192359L83.772493 30.47705L46.112772 30.47705"
       id="path937" />
    <path
       style="display:inline;fill:none;fill-opacity:1;stroke:#000000;stroke-width:0.1;stroke-miterlimit:4;stroke-dasharray:none;stroke-opacity:1"
       d="M78.234318 34.625939L78.512397752 34.6466250352L78.7722285156 34.7209610313L79.0079951777 34.8432888242L79.213882625 35.00795025L79.3840757441 35.2092871445L79.5127594219 35.4416413438L79.5941185449 35.6993546836L79.622338 35.976769L79.6148475317 36.1405334629L79.5924750623 36.2937324766L79.5562127448 36.436366041L79.5070527324 36.5684341563L79.4459871783 36.6899368223L79.3740082356 36.8008740391L79.2012787969 36.991052125L78.9968016414 37.1389684141L78.7685139941 37.2446229063L78.5243530803 37.3080156016L78.272256125 37.3291465L78.0201603533 37.3080156016L77.7760029902 37.2446229063L77.547721261 37.1389684141L77.3432523906 36.991052125L77.1705336042 36.8008740391L77.0985608754 36.6899368223L77.037502127 36.5684341563L76.9883495121 36.436366041L76.9520951838 36.2937324766L76.9297312954 36.1405334629L76.92225 35.976769L76.9484155254 35.7095971055L77.0241218906 35.4600632188L77.1442905293 35.2333937852L77.303842875 35.03481525L77.4977003613 34.8695540586L77.7207844219 34.7428366562L77.9680164902 34.6598894883L78.234318 34.625939L78.234318 34.625939"
       id="path939"
       inkscape:connector-curvature="0" />
    <path
       style="display:inline;fill:none;fill-opacity:1;stroke:#000000;stroke-width:0.1;stroke-miterlimit:4;stroke-dasharray:none;stroke-opacity:1"
       d="M51.572757 34.627304L51.8509385234 34.6476779258L52.1109173125 34.7217529063L52.3468684453 34.8438712461L52.552967 35.00837525L52.7233880547 35.2096072227L52.8523066875 35.4419094688L52.9338979766 35.699624293L52.962337 35.977094L52.9545913805 36.1405769199L52.9320137236 36.2935125547L52.8955928319 36.4359009043L52.8463175078 36.5677419687L52.7131587725 36.7997822422L52.5404479375 36.989633375L52.3360954229 37.1372953672L52.1080116484 37.2427682187L51.8641070342 37.3060519297L51.612292 37.3271465L51.3604769658 37.3060519297L51.1165723516 37.2427682187L50.8884885771 37.1372953672L50.6841360625 36.989633375L50.5114252275 36.7997822422L50.3782664922 36.5677419687L50.3289911681 36.4359009043L50.2925702764 36.2935125547L50.2699926195 36.1405769199L50.262247 35.977094L50.2885575078 35.7102813828L50.3642679375 35.4610780625L50.4843216484 35.2346920859L50.643662 35.0363315L50.8372323516 34.8712043516L51.0599760625 34.7445186875L51.3068364922 34.6614825547L51.572757 34.627304L51.572757 34.627304"
       id="path941"
       inkscape:connector-curvature="0" />
    <path
       style="display:inline;fill:none;fill-opacity:1;stroke:#000000;stroke-width:0.1;stroke-miterlimit:4;stroke-dasharray:none;stroke-opacity:1"
       d="M51.573279 61.509297L51.8513803672 61.529762043L52.1112724375 61.6038952812L52.3471359141 61.7260426289L52.5531515 61.89055L52.7234998984 62.0917633086L52.8523618125 62.3240284688L52.9339179453 62.5816913945L52.962349 62.859098L52.9548596638 63.0228225928L52.9324904429 63.1759843086L52.8962332691 63.3185831475L52.8470800742 63.4506191094L52.78602279 63.5720921943L52.7140533481 63.6830024023L52.5413457188 63.8731341875L52.3368926401 64.0210144648L52.1086295664 64.1266432344L51.8644919517 64.1900204961L51.61241525 64.21114625L51.3603349155 64.1900204961L51.1161864023 64.1266432344L50.8879051646 64.0210144648L50.6834266562 63.8731341875L50.5106863315 63.6830024023L50.4386978174 63.5720921943L50.3776196445 63.4506191094L50.3284437446 63.3185831475L50.2921620493 63.1759843086L50.2697664905 63.0228225928L50.262249 62.859098L50.2885798008 62.5922185879L50.3643329062 62.3429603906L50.4844468711 62.1165348418L50.64386025 61.918153375L50.8375115977 61.7530274238L51.0603394687 61.6263684219L51.307282418 61.5433878027L51.573279 61.509297L51.573279 61.509297"
       id="path951"
       inkscape:connector-curvature="0" />
  </g>
  <g
     id="g826"
     inkscape:groupmode="layer"
     inkscape:label="B.Cu-disabled"
     style="display:inline" />
  <g
     id="g828"
     inkscape:groupmode="layer"
     inkscape:label="B.Mask"
     style="display:inline" />
  <g
     id="g830"
     inkscape:groupmode="layer"
     inkscape:label="B.Silk-disabled"
     style="display:inline" />
  <g
     id="g832"
     inkscape:groupmode="layer"
     inkscape:label="F.Cu"
     style="display:inline">
    <path
       style="display:inline;fill:#ff0000;fill-opacity:1;stroke:none;stroke-width:0.01;stroke-miterlimit:4;stroke-dasharray:none;stroke-opacity:1"
       d="m 33.349235,39.052334 v 0.750341 0.749829 l 5.29e-4,12.74959 c -1.1e-5,0.4142 -0.335611,0.75034 -0.74982,0.75034 -0.41421,0 -0.75033,-0.33562 -0.75034,-0.74982 v -12.75011 h -16.05523 -0.75034 l 0.0196,0.79995 h 0.7307 0.75086 13.05438 c 0.41422,0 0.75036,0.3356 0.75034,0.74982 -10e-6,0.41421 -0.33613,0.75034 -0.75034,0.75034 H 16.545185 l -5.29e-4,13.6168 -5.03e-4,2.432851 v 1.02785 h -1.50017 v 8.363829 h 5.49992 v -8.363829 h -2.998778 v -1.02785 -0.783932 l -5.29e-4,-12.715999 c 1e-5,-0.41421 0.33561,-0.74983 0.74983,-0.74983 0.41421,0 0.75033,0.33562 0.75034,0.74983 l -1.6e-4,12.750019 16.90443,1.22e-4 v -0.99994 h -0.749821 -13.80471 c -0.41422,0 -0.74982,-0.336131 -0.74983,-0.750341 10e-6,-0.41421 0.33562,-0.74983 0.74983,-0.74983 h 12.955151 l -5.29e-4,-15.09983 v -0.74983 c -1.1e-5,-0.0364 0.006,-0.0714 0.0109,-0.10645 l -0.0109,-0.64389 z"
       id="path7566"
       inkscape:connector-curvature="0"
       sodipodi:nodetypes="ccccscccccccscsccccccccccccscccccscscccccc" />
    <path
       id="path963"
       style="fill:#ff0000;fill-opacity:1;stroke:none;stroke-width:0.26458332px;stroke-linecap:butt;stroke-linejoin:miter;stroke-opacity:1"
       d="m 54.754229,39.118511 v 29.241538 l 5.49992,3.9e-5 V 59.718614 H 75.659283 V 39.118511 Z"
       inkscape:connector-curvature="0"
       sodipodi:nodetypes="ccccccc" />
  </g>
  <g
     id="g834"
     inkscape:groupmode="layer"
     inkscape:label="F.Mask"
     style="display:inline">
    <path
       sodipodi:nodetypes="ccccscccccccscsccccccccccccscccccscscccccc"
       inkscape:connector-curvature="0"
       id="path918"
       d="m 33.349235,39.052334 v 0.750341 0.749829 l 5.29e-4,12.74959 c -1.1e-5,0.4142 -0.335611,0.75034 -0.74982,0.75034 -0.41421,0 -0.75033,-0.33562 -0.75034,-0.74982 v -12.75011 h -16.05523 -0.75034 l 0.0196,0.79995 h 0.7307 0.75086 13.05438 c 0.41422,0 0.75036,0.3356 0.75034,0.74982 -10e-6,0.41421 -0.33613,0.75034 -0.75034,0.75034 H 16.545185 l -5.29e-4,13.6168 -5.03e-4,2.432851 v 1.02785 h -1.50017 v 8.363829 h 5.49992 v -8.363829 h -2.998778 v -1.02785 -0.783932 l -5.29e-4,-12.715999 c 1e-5,-0.41421 0.33561,-0.74983 0.74983,-0.74983 0.41421,0 0.75033,0.33562 0.75034,0.74983 l -1.6e-4,12.750019 16.90443,1.22e-4 v -0.99994 h -0.749821 -13.80471 c -0.41422,0 -0.74982,-0.336131 -0.74983,-0.750341 10e-6,-0.41421 0.33562,-0.74983 0.74983,-0.74983 h 12.955151 l -5.29e-4,-15.09983 v -0.74983 c -1.1e-5,-0.0364 0.006,-0.0714 0.0109,-0.10645 l -0.0109,-0.64389 z"
       style="display:inline;fill:#000000;fill-opacity:1;stroke:none;stroke-width:0.01;stroke-miterlimit:4;stroke-dasharray:none;stroke-opacity:1" />
    <path
       sodipodi:nodetypes="ccccccc"
       inkscape:connector-curvature="0"
       d="m 53.753854,38.118146 v 30.241903 l 7.5,3.9e-5 v -7.641942 h 15.405 v -22.6 z"
       style="display:inline;fill:#000000;fill-opacity:1;stroke:none;stroke-width:0.26458332px;stroke-linecap:butt;stroke-linejoin:miter;stroke-opacity:1"
       id="path968" />
  </g>
  <g
     id="g836"
     inkscape:groupmode="layer"
     inkscape:label="F.Silk-disabled"
     style="display:inline" />
  <g
     id="g838"
     inkscape:groupmode="layer"
     inkscape:label="Drill" />
</svg>
